<svg width="32" height="36" viewBox="0 0 32 36" fill="none" xmlns="http://www.w3.org/2000/svg">
<line x1="31.5" y1="35" x2="31.5" y2="1" stroke="black"/>
<line x1="15.5" y1="35" x2="15.5" y2="1" stroke="black"/>
<path d="M15 1L32 1" stroke="black"/>
<path d="M15 35H32" stroke="black"/>
<path d="M14.5714 15.5893L14.5714 21.6607C14.5714 21.7006 14.5642 21.7401 14.5501 21.7769C14.536 21.8137 14.5154 21.8472 14.4894 21.8754C14.4634 21.9036 14.4325 21.926 14.3985 21.9412C14.3645 21.9565 14.328 21.9644 14.2912 21.9644C14.2544 21.9644 14.218 21.9565 14.184 21.9412C14.15 21.926 14.1191 21.9036 14.093 21.8754C14.067 21.8472 14.0464 21.8137 14.0323 21.7769C14.0182 21.7401 14.011 21.7006 14.011 21.6607V18.9134H11.7692V23.2393C11.7692 23.3349 11.7633 23.4248 11.7524 23.5086C11.6835 24.1846 11.3377 25 10.0879 25H7.32775C7.25343 25 7.18215 24.968 7.1296 24.9111C7.07705 24.8542 7.04753 24.7769 7.04753 24.6964V23.4821H1.68132C0.597148 23.4821 0 22.8352 0 21.6607L0 15.5893C0 14.4148 0.597148 13.7679 1.68132 13.7679L7.04753 13.7679V12.5536C7.04753 12.4731 7.07705 12.3958 7.1296 12.3389C7.18215 12.282 7.25343 12.25 7.32775 12.25H10.0879C11.1791 12.25 11.5686 12.8829 11.7031 13.4142C11.7484 13.604 11.7707 13.7995 11.7692 13.9955V18.3063H14.011V15.5893C14.011 15.5494 14.0182 15.5099 14.0323 15.4731C14.0464 15.4363 14.067 15.4028 14.093 15.3746C14.1191 15.3464 14.15 15.324 14.184 15.3088C14.218 15.2935 14.2544 15.2856 14.2912 15.2856C14.328 15.2856 14.3645 15.2935 14.3985 15.3088C14.4325 15.324 14.4634 15.3464 14.4894 15.3746C14.5154 15.4028 14.536 15.4363 14.5501 15.4731C14.5642 15.5099 14.5714 15.5494 14.5714 15.5893V15.5893ZM11.2088 18.6098L11.2088 13.9955C11.2088 13.8401 11.1931 13.6983 11.1623 13.573C11.0947 13.3061 10.9367 12.9607 10.3681 12.8763L10.3681 24.374C10.8795 24.2997 11.1385 24.0013 11.1965 23.4333C11.2049 23.3677 11.2088 23.3055 11.2088 23.2393V18.6098ZM9.80769 13.7679V12.8571H7.60769V13.7679H9.80769ZM9.80769 22.875L9.80769 14.375L4.76374 14.375L4.76374 22.875H9.80769V22.875ZM9.80769 24.3929V23.4821H7.60769V24.3929H9.80769ZM4.2033 22.875L4.2033 14.375H1.68132C0.905951 14.375 0.56044 14.7493 0.56044 15.5893L0.56044 21.6607C0.56044 22.5007 0.905951 22.875 1.68132 22.875H4.2033V22.875Z" fill="black"/>
</svg>
