<svg width="32" height="36" viewBox="0 0 32 36" fill="none" xmlns="http://www.w3.org/2000/svg">
<line x1="0.5" y1="1" x2="0.5" y2="35" stroke="black"/>
<line x1="16.5" y1="1" x2="16.5" y2="35" stroke="black"/>
<path d="M17 35H4.76837e-07" stroke="black"/>
<path d="M17 1L4.76837e-07 1" stroke="black"/>
<path d="M17.4286 20.4107V14.3393C17.4286 14.2994 17.4358 14.2599 17.4499 14.2231C17.464 14.1863 17.4846 14.1528 17.5106 14.1246C17.5366 14.0964 17.5675 14.074 17.6015 14.0588C17.6355 14.0435 17.672 14.0356 17.7088 14.0356C17.7456 14.0356 17.782 14.0435 17.816 14.0588C17.85 14.074 17.8809 14.0964 17.907 14.1246C17.933 14.1528 17.9536 14.1863 17.9677 14.2231C17.9818 14.2599 17.989 14.2994 17.989 14.3393V17.0866L20.2308 17.0866V12.7607C20.2308 12.6651 20.2367 12.5752 20.2476 12.4914C20.3165 11.8154 20.6623 11 21.9121 11H24.6723C24.7466 11 24.8178 11.032 24.8704 11.0889C24.9229 11.1458 24.9525 11.2231 24.9525 11.3036V12.5179L30.3187 12.5179C31.4029 12.5179 32 13.1648 32 14.3393V20.4107C32 21.5852 31.4029 22.2321 30.3187 22.2321H24.9525L24.9525 23.4464C24.9525 23.5269 24.9229 23.6042 24.8704 23.6611C24.8178 23.718 24.7466 23.75 24.6723 23.75H21.9121C20.8209 23.75 20.4314 23.1171 20.2969 22.5858C20.2516 22.396 20.2293 22.2005 20.2308 22.0045V17.6937L17.989 17.6937V20.4107C17.989 20.4506 17.9818 20.4901 17.9677 20.5269C17.9536 20.5637 17.933 20.5972 17.907 20.6254C17.8809 20.6536 17.85 20.676 17.816 20.6912C17.782 20.7065 17.7456 20.7144 17.7088 20.7144C17.672 20.7144 17.6355 20.7065 17.6015 20.6912C17.5675 20.676 17.5366 20.6536 17.5106 20.6254C17.4846 20.5972 17.464 20.5637 17.4499 20.5269C17.4358 20.4901 17.4286 20.4506 17.4286 20.4107V20.4107ZM20.7912 17.3902V22.0045C20.7912 22.1599 20.8069 22.3017 20.8377 22.427C20.9053 22.6939 21.0633 23.0393 21.6319 23.1237V11.626C21.1205 11.7003 20.8615 11.9987 20.8035 12.5667C20.7951 12.6323 20.7912 12.6945 20.7912 12.7607V17.3902ZM22.1923 22.2321V23.1429H24.3923L24.3923 22.2321H22.1923ZM22.1923 13.125V21.625H27.2363V13.125L22.1923 13.125V13.125ZM22.1923 11.6071V12.5179H24.3923V11.6071H22.1923ZM27.7967 13.125V21.625H30.3187C31.094 21.625 31.4396 21.2507 31.4396 20.4107V14.3393C31.4396 13.4993 31.094 13.125 30.3187 13.125H27.7967V13.125Z" fill="black"/>
</svg>
