<svg width="36" height="32" viewBox="0 0 36 32" fill="none" xmlns="http://www.w3.org/2000/svg">
<line x1="35" y1="0.5" x2="1" y2="0.5" stroke="black"/>
<line x1="35" y1="16.5" x2="1" y2="16.5" stroke="black"/>
<path d="M1 17L1 4.76837e-07" stroke="black"/>
<path d="M35 17V4.76837e-07" stroke="black"/>
<path d="M15.5893 17.4286H21.6607C21.7006 17.4286 21.7401 17.4358 21.7769 17.4499C21.8137 17.464 21.8472 17.4846 21.8754 17.5106C21.9036 17.5366 21.926 17.5675 21.9412 17.6015C21.9565 17.6355 21.9644 17.672 21.9644 17.7088C21.9644 17.7456 21.9565 17.782 21.9412 17.816C21.926 17.85 21.9036 17.8809 21.8754 17.907C21.8472 17.933 21.8137 17.9536 21.7769 17.9677C21.7401 17.9818 21.7006 17.989 21.6607 17.989H18.9134V20.2308H23.2393C23.3349 20.2308 23.4248 20.2367 23.5086 20.2476C24.1846 20.3165 25 20.6623 25 21.9121V24.6723C25 24.7466 24.968 24.8178 24.9111 24.8704C24.8542 24.9229 24.7769 24.9525 24.6964 24.9525H23.4821V30.3187C23.4821 31.4029 22.8352 32 21.6607 32H15.5893C14.4148 32 13.7679 31.4029 13.7679 30.3187V24.9525H12.5536C12.4731 24.9525 12.3958 24.9229 12.3389 24.8704C12.282 24.8178 12.25 24.7466 12.25 24.6723V21.9121C12.25 20.8209 12.8829 20.4314 13.4142 20.2969C13.604 20.2516 13.7995 20.2293 13.9955 20.2308H18.3063V17.989H15.5893C15.5494 17.989 15.5099 17.9818 15.4731 17.9677C15.4363 17.9536 15.4028 17.933 15.3746 17.907C15.3464 17.8809 15.324 17.85 15.3088 17.816C15.2935 17.782 15.2856 17.7456 15.2856 17.7088C15.2856 17.672 15.2935 17.6355 15.3088 17.6015C15.324 17.5675 15.3464 17.5366 15.3746 17.5106C15.4028 17.4846 15.4363 17.464 15.4731 17.4499C15.5099 17.4358 15.5494 17.4286 15.5893 17.4286V17.4286ZM18.6098 20.7912H13.9955C13.8401 20.7912 13.6983 20.8069 13.573 20.8377C13.3061 20.9053 12.9607 21.0633 12.8763 21.6319H24.374C24.2997 21.1205 24.0013 20.8615 23.4333 20.8035C23.3677 20.7951 23.3055 20.7912 23.2393 20.7912H18.6098ZM13.7679 22.1923H12.8571V24.3923H13.7679V22.1923ZM22.875 22.1923H14.375L14.375 27.2363H22.875V22.1923V22.1923ZM24.3929 22.1923H23.4821V24.3923H24.3929V22.1923ZM22.875 27.7967H14.375V30.3187C14.375 31.094 14.7493 31.4396 15.5893 31.4396H21.6607C22.5007 31.4396 22.875 31.094 22.875 30.3187V27.7967V27.7967Z" fill="black"/>
</svg>
