<svg width="36" height="32" viewBox="0 0 36 32" fill="none" xmlns="http://www.w3.org/2000/svg">
<line x1="1" y1="31.5" x2="35" y2="31.5" stroke="black"/>
<line x1="1" y1="15.5" x2="35" y2="15.5" stroke="black"/>
<path d="M35 15V32" stroke="black"/>
<path d="M1 15L1 32" stroke="black"/>
<path d="M20.4107 14.5714H14.3393C14.2994 14.5714 14.2599 14.5642 14.2231 14.5501C14.1863 14.536 14.1528 14.5154 14.1246 14.4894C14.0964 14.4634 14.074 14.4325 14.0588 14.3985C14.0435 14.3645 14.0356 14.328 14.0356 14.2912C14.0356 14.2544 14.0435 14.218 14.0588 14.184C14.074 14.15 14.0964 14.1191 14.1246 14.093C14.1528 14.067 14.1863 14.0464 14.2231 14.0323C14.2599 14.0182 14.2994 14.011 14.3393 14.011H17.0866V11.7692H12.7607C12.6651 11.7692 12.5752 11.7633 12.4914 11.7524C11.8154 11.6835 11 11.3377 11 10.0879V7.32775C11 7.25343 11.032 7.18215 11.0889 7.1296C11.1458 7.07705 11.2231 7.04753 11.3036 7.04753H12.5179V1.68132C12.5179 0.597148 13.1648 0 14.3393 0H20.4107C21.5852 0 22.2321 0.597148 22.2321 1.68132V7.04753H23.4464C23.5269 7.04753 23.6042 7.07705 23.6611 7.1296C23.718 7.18215 23.75 7.25343 23.75 7.32775V10.0879C23.75 11.1791 23.1171 11.5686 22.5858 11.7031C22.396 11.7484 22.2005 11.7707 22.0045 11.7692H17.6937V14.011H20.4107C20.4506 14.011 20.4901 14.0182 20.5269 14.0323C20.5637 14.0464 20.5972 14.067 20.6254 14.093C20.6536 14.1191 20.676 14.15 20.6912 14.184C20.7065 14.218 20.7144 14.2544 20.7144 14.2912C20.7144 14.328 20.7065 14.3645 20.6912 14.3985C20.676 14.4325 20.6536 14.4634 20.6254 14.4894C20.5972 14.5154 20.5637 14.536 20.5269 14.5501C20.4901 14.5642 20.4506 14.5714 20.4107 14.5714V14.5714ZM17.3902 11.2088H22.0045C22.1599 11.2088 22.3017 11.1931 22.427 11.1623C22.6939 11.0947 23.0393 10.9367 23.1237 10.3681H11.626C11.7003 10.8795 11.9987 11.1385 12.5667 11.1965C12.6323 11.2049 12.6945 11.2088 12.7607 11.2088H17.3902ZM22.2321 9.80769H23.1429V7.60769H22.2321V9.80769ZM13.125 9.80769H21.625V4.76374H13.125V9.80769V9.80769ZM11.6071 9.80769H12.5179V7.60769H11.6071V9.80769ZM13.125 4.2033H21.625V1.68132C21.625 0.905951 21.2507 0.56044 20.4107 0.56044H14.3393C13.4993 0.56044 13.125 0.905951 13.125 1.68132V4.2033V4.2033Z" fill="black"/>
</svg>
